# xmcd
#
# Track frame offsets:
# 150
# 11845
# 30205
# 45042
# 59245
# 73122
# 84177
# 99770
# 110807
# 126017
# 153472
# 165052
#
# Disc length: 2448 seconds
#
#
# Revision: 0
# Processed by: cddbd v1.5.1PL0 Copyright (c) Steve Scherf et al.
# Submitted via: FreeRIP 2.931 
#
DISCID=86098e0c
DTITLE=Louvor Pentecostal 1 - Louvor Pentecostal 1
DYEAR=1900
DGENRE=Gospel
TTITLE0=Quando o azeite desce
TTITLE1=O fogo cai
TTITLE2=Chama de fogo
TTITLE3=Não brinque com fogo
TTITLE4=Deus tem uma bênção
TTITLE5=Se você crê
TTITLE6=Quando a igreja ora
TTITLE7=E com Deus a gente vai
TTITLE8=Fogo diferente
TTITLE9=Queima Senhor
TTITLE10=Cheio da Unção
TTITLE11=Deixa o anjo
EXTD=Cassiane, Alvaro Tito, e outros
EXTT0=
EXTT1=
EXTT2=
EXTT3=
EXTT4=
EXTT5=
EXTT6=
EXTT7=
EXTT8=
EXTT9=
EXTT10=
EXTT11=
PLAYORDER=
